<svg xmlns="http://www.w3.org/2000/svg" width="29" height="29" viewBox="0 0 29 29" fill="none">
                        <path d="M2.80645 11.6935C2.80645 10.9186 2.1782 10.2903 1.40323 10.2903C0.628252 10.2903 0 10.9186 0 11.6935H2.80645ZM12.629 29C13.404 29 14.0323 28.3717 14.0323 27.5968C14.0323 26.8218 13.404 26.1935 12.629 26.1935V29ZM0 11.6935C0 12.4685 0.628252 13.0968 1.40323 13.0968C2.1782 13.0968 2.80645 12.4685 2.80645 11.6935H0ZM12.629 2.80645C13.404 2.80645 14.0323 2.1782 14.0323 1.40323C14.0323 0.628252 13.404 0 12.629 0V2.80645ZM1.40323 10.2903C0.628252 10.2903 0 10.9186 0 11.6935C0 12.4685 0.628252 13.0968 1.40323 13.0968V10.2903ZM12.629 13.0968C13.404 13.0968 14.0323 12.4685 14.0323 11.6935C14.0323 10.9186 13.404 10.2903 12.629 10.2903V13.0968ZM11.2258 11.6935C11.2258 12.4685 11.8541 13.0968 12.629 13.0968C13.404 13.0968 14.0323 12.4685 14.0323 11.6935H11.2258ZM14.0323 1.40323C14.0323 0.628252 13.404 0 12.629 0C11.8541 0 11.2258 0.628252 11.2258 1.40323H14.0323ZM14.0323 11.6935C14.0323 10.9186 13.404 10.2903 12.629 10.2903C11.8541 10.2903 11.2258 10.9186 11.2258 11.6935H14.0323ZM11.2258 18.2419C11.2258 19.0169 11.8541 19.6452 12.629 19.6452C13.404 19.6452 14.0323 19.0169 14.0323 18.2419H11.2258ZM12.629 26.1935C11.8541 26.1935 11.2258 26.8218 11.2258 27.5968C11.2258 28.3717 11.8541 29 12.629 29V26.1935ZM29 18.2419C29 17.467 28.3717 16.8387 27.5968 16.8387C26.8218 16.8387 26.1935 17.467 26.1935 18.2419H29ZM11.2258 27.5968C11.2258 28.3717 11.8541 29 12.629 29C13.404 29 14.0323 28.3717 14.0323 27.5968H11.2258ZM14.0323 18.2419C14.0323 17.467 13.404 16.8387 12.629 16.8387C11.8541 16.8387 11.2258 17.467 11.2258 18.2419H14.0323ZM12.629 0C11.8541 0 11.2258 0.628252 11.2258 1.40323C11.2258 2.1782 11.8541 2.80645 12.629 2.80645V0ZM26.1935 18.2419C26.1935 19.0169 26.8218 19.6452 27.5968 19.6452C28.3717 19.6452 29 19.0169 29 18.2419H26.1935ZM27.5968 19.6452C28.3717 19.6452 29 19.0169 29 18.2419C29 17.467 28.3717 16.8387 27.5968 16.8387V19.6452ZM12.629 16.8387C11.8541 16.8387 11.2258 17.467 11.2258 18.2419C11.2258 19.0169 11.8541 19.6452 12.629 19.6452V16.8387ZM0 11.6935V20.1129H2.80645V11.6935H0ZM0 20.1129C0 25.0212 3.97889 29 8.8871 29V26.1935C5.52884 26.1935 2.80645 23.4711 2.80645 20.1129H0ZM8.8871 29H12.629V26.1935H8.8871V29ZM2.80645 11.6935V8.8871H0V11.6935H2.80645ZM2.80645 8.8871C2.80645 5.52884 5.52884 2.80645 8.8871 2.80645V0C3.97889 0 0 3.97889 0 8.8871H2.80645ZM8.8871 2.80645H12.629V0H8.8871V2.80645ZM1.40323 13.0968H12.629V10.2903H1.40323V13.0968ZM14.0323 11.6935V1.40323H11.2258V11.6935H14.0323ZM11.2258 11.6935V18.2419H14.0323V11.6935H11.2258ZM12.629 29H20.1129V26.1935H12.629V29ZM20.1129 29C25.0212 29 29 25.0212 29 20.1129H26.1935C26.1935 23.4711 23.4711 26.1935 20.1129 26.1935V29ZM29 20.1129V18.2419H26.1935V20.1129H29ZM14.0323 27.5968V18.2419H11.2258V27.5968H14.0323ZM12.629 2.80645H20.1129V0H12.629V2.80645ZM20.1129 2.80645C23.4711 2.80645 26.1935 5.52884 26.1935 8.8871H29C29 3.97889 25.0212 0 20.1129 0V2.80645ZM26.1935 8.8871V18.2419H29V8.8871H26.1935ZM27.5968 16.8387H12.629V19.6452H27.5968V16.8387Z" fill="#9CA3AF"/>
                    </svg>