<?xml version="1.0" encoding="UTF-8" standalone="no"?>
<!DOCTYPE svg PUBLIC "-//W3C//DTD SVG 1.1//EN" "http://www.w3.org/Graphics/SVG/1.1/DTD/svg11.dtd">
<!-- Created with Vectornator (http://vectornator.io/) -->
<svg height="100%" stroke-miterlimit="10" style="fill-rule:nonzero;clip-rule:evenodd;stroke-linecap:round;stroke-linejoin:round;" version="1.1" viewBox="0 0 16 16" width="100%" xml:space="preserve" xmlns="http://www.w3.org/2000/svg" xmlns:vectornator="http://vectornator.io" xmlns:xlink="http://www.w3.org/1999/xlink">
<defs/>
<clipPath id="ArtboardFrame">
<rect height="16" width="16" x="0" y="0"/>
</clipPath>
<g clip-path="url(#ArtboardFrame)" id="Layer-1" vectornator:layerName="Layer 1">
<path d="M4.6525 13L6.3685 13L6.3685 9.451L7.6555 9.451C9.0335 9.451 9.4625 9.841 9.8525 11.414L10.2295 13L12.0105 13L11.4905 11.115C11.1655 9.906 10.7105 9.113 9.6315 8.71L9.6315 8.684C10.9965 8.424 11.7375 7.553 11.7375 6.37C11.7375 4.888 10.5545 3.9 8.4745 3.9L4.6525 3.9L4.6525 13ZM6.3685 8.073L6.3685 5.291L8.1885 5.291C9.3845 5.291 9.9695 5.785 9.9695 6.63C9.9695 7.566 9.2675 8.073 7.8245 8.073L6.3685 8.073Z" fill="#e95633" opacity="1" stroke="none" vectornator:layerName="Text 1"/>
<g fill="#3395ff" opacity="1" stroke="none" vectornator:layerName="Text 2">
<path d="M30.0779 23.166L30.0779 25.2168L24.2771 25.2168L24.2771 40.3808L21.9099 40.3808L21.9099 25.2168L16.1091 25.2168L16.1091 23.166L30.0779 23.166Z"/>
<path d="M22.4958 56.5488C23.3865 56.5488 24.2497 56.7578 25.0857 57.1758C25.9216 57.5937 26.5583 58.1347 26.9958 58.7988C27.4177 59.4316 27.699 60.1699 27.8396 61.0136C27.9646 61.5918 28.0271 62.5136 28.0271 63.7793L18.8279 63.7793C18.8669 65.0527 19.1677 66.0742 19.7302 66.8437C20.2927 67.6133 21.1638 67.998 22.3435 67.998C23.4451 67.998 24.324 67.6347 24.9802 66.9082C25.3552 66.4863 25.6208 65.998 25.7771 65.4433L27.8513 65.4433C27.7966 65.9043 27.615 66.4179 27.3064 66.9844C26.9978 67.5508 26.6521 68.0136 26.2693 68.373C25.6287 68.998 24.8357 69.4199 23.8904 69.6386C23.3826 69.7636 22.8083 69.8261 22.1677 69.8261C20.6052 69.8261 19.281 69.2578 18.1951 68.1211C17.1091 66.9844 16.5662 65.3926 16.5662 63.3457C16.5662 61.3301 17.113 59.6933 18.2068 58.4355C19.3005 57.1777 20.7302 56.5488 22.4958 56.5488ZM25.8591 62.1035C25.7732 61.1894 25.574 60.459 25.2615 59.9121C24.6833 58.8965 23.7185 58.3886 22.3669 58.3886C21.3982 58.3886 20.5857 58.7383 19.9294 59.4375C19.2732 60.1367 18.9255 61.0254 18.8865 62.1035L25.8591 62.1035Z"/>
<path d="M16.074 85.8301L18.8044 85.8301L21.6872 90.248L24.6052 85.8301L27.1716 85.8886L22.9412 91.9472L27.3591 98.3808L24.6638 98.3808L21.5466 93.6699L18.5232 98.3808L15.8513 98.3808L20.2693 91.9472L16.074 85.8301Z"/>
<path d="M17.6912 111.326L19.824 111.326L19.824 114.83L21.8279 114.83L21.8279 116.553L19.824 116.553L19.824 124.744C19.824 125.182 19.9724 125.475 20.2693 125.623C20.4333 125.709 20.7068 125.752 21.0896 125.752C21.1912 125.752 21.3005 125.75 21.4177 125.746C21.5349 125.742 21.6716 125.732 21.8279 125.717L21.8279 127.381C21.5857 127.451 21.3337 127.502 21.072 127.533C20.8103 127.564 20.5271 127.58 20.2224 127.58C19.238 127.58 18.5701 127.328 18.2185 126.824C17.8669 126.32 17.6912 125.666 17.6912 124.861L17.6912 116.553L15.9919 116.553L15.9919 114.83L17.6912 114.83L17.6912 111.326Z"/>
</g>
</g>
</svg>
