<?xml version="1.0" encoding="UTF-8" standalone="no"?>
<!DOCTYPE svg PUBLIC "-//W3C//DTD SVG 1.1//EN" "http://www.w3.org/Graphics/SVG/1.1/DTD/svg11.dtd">
<!-- Created with Vectornator (http://vectornator.io/) -->
<svg height="100%" stroke-miterlimit="10" style="fill-rule:nonzero;clip-rule:evenodd;stroke-linecap:round;stroke-linejoin:round;" version="1.1" viewBox="0 0 16 16" width="100%" xml:space="preserve" xmlns="http://www.w3.org/2000/svg" xmlns:vectornator="http://vectornator.io" xmlns:xlink="http://www.w3.org/1999/xlink">
<defs/>
<g id="bracket-left" vectornator:layerName="bracket left">
<path d="M4.60506 1.89288L1.89079 1.89288L1.89079 14.1071L4.60506 14.1071" fill="none" opacity="1" stroke="#ff9d09" stroke-linecap="square" stroke-linejoin="miter" stroke-width="1.35714" vectornator:layerName="path"/>
<path d="M11.4372 14.1041L14.1515 14.1071L14.1649 1.89289L11.4507 1.8899" fill="none" opacity="1" stroke="#ff9d09" stroke-linecap="square" stroke-linejoin="miter" stroke-width="1.35714" vectornator:layerName="path 1"/>
</g>
<g id="hand2" vectornator:layerName="hand2" visibility="hidden">
<path d="M7.54248 12.555C9.01548 12.555 10.0491 11.7557 10.6057 10.1865L11.3422 8.11507C11.5263 7.592 11.3589 7.16098 10.9237 7.00196C10.5345 6.85968 10.1495 7.02707 9.9654 7.4581L9.69341 8.12764C9.68503 8.14437 9.67248 8.15692 9.65575 8.15692C9.63481 8.15692 9.62645 8.14019 9.62645 8.11927L9.62645 4.76316C9.62645 4.27355 9.32096 3.96808 8.85229 3.96808C8.68071 3.96808 8.52588 4.02666 8.40871 4.13546C8.35431 3.70863 8.07812 3.44499 7.66384 3.44499C7.25791 3.44499 6.97337 3.71699 6.91059 4.12709C6.80598 4.02248 6.65534 3.96808 6.50468 3.96808C6.06948 3.96808 5.78073 4.26937 5.78073 4.73388L5.78073 5.19836C5.66775 5.0812 5.50036 5.01843 5.32042 5.01843C4.88522 5.01843 4.58392 5.34065 4.58392 5.80933L4.58392 9.40396C4.58392 11.3624 5.77238 12.555 7.54248 12.555ZM7.52156 11.9733C6.0402 11.9733 5.13631 11.0234 5.13631 9.33701L5.13631 5.86791C5.13631 5.69215 5.24927 5.56662 5.42503 5.56662C5.59662 5.56662 5.72215 5.69215 5.72215 5.86791L5.72215 8.00628C5.72215 8.16112 5.84769 8.26573 5.9816 8.26573C6.12388 8.26573 6.25361 8.16112 6.25361 8.00628L6.25361 4.80919C6.25361 4.62925 6.3666 4.50789 6.53816 4.50789C6.71392 4.50789 6.83528 4.62925 6.83528 4.80919L6.83528 7.79285C6.83528 7.9477 6.96081 8.05231 7.0989 8.05231C7.24118 8.05231 7.37092 7.9477 7.37092 7.79285L7.37092 4.2903C7.37092 4.11454 7.48808 3.98481 7.66384 3.98481C7.83123 3.98481 7.95258 4.11454 7.95258 4.2903L7.95258 7.79285C7.95258 7.93933 8.06974 8.05231 8.21622 8.05231C8.35849 8.05231 8.48404 7.93933 8.48404 7.79285L8.48404 4.80919C8.48404 4.62925 8.60538 4.50789 8.77697 4.50789C8.95271 4.50789 9.06989 4.62925 9.06989 4.80919L9.06989 8.9269C9.06989 9.11939 9.19125 9.2575 9.36699 9.2575C9.51765 9.2575 9.64318 9.19054 9.73943 8.98131L10.3085 7.70917C10.3839 7.52923 10.5345 7.43715 10.6894 7.49575C10.8567 7.56271 10.9153 7.72172 10.8358 7.93933L10.0951 10.0066C9.5846 11.4335 8.68909 11.9733 7.52156 11.9733Z" fill="#000000" fill-rule="nonzero" opacity="1" stroke="none" vectornator:layerName="path"/>
</g>
<g id="hand" vectornator:layerName="hand">
<path d="M11.9516 10.9804L8.80282 12.2535C8.64537 12.3171 8.49798 12.2546 8.43432 12.0972C8.27519 11.7036 7.99603 11.5417 7.55886 11.291C7.32716 11.171 7.04799 11.0091 6.74761 10.7947C5.93078 10.2091 5.10277 9.44476 4.8599 9.14608C4.61702 8.84739 4.60026 8.5794 4.65217 8.40576C4.69348 8.20589 4.87158 8.04229 5.10774 7.94681C5.42262 7.81951 5.84359 7.9546 6.27015 8.17902L5.17743 5.47628C4.99707 5.0302 5.20028 4.55116 5.64636 4.37081C6.09245 4.19046 6.57148 4.39366 6.75184 4.83975L7.19741 5.94183C7.26553 5.88377 7.33364 5.8257 7.4386 5.78326C7.72724 5.66656 8.02706 5.72852 8.24313 5.8854C8.31626 5.76424 8.43685 5.68496 8.56805 5.63191C8.93542 5.48339 9.31954 5.60285 9.56242 5.90154C9.63053 5.84347 9.72488 5.7748 9.82984 5.73236C10.2759 5.55201 10.755 5.75521 10.9353 6.2013L11.2536 6.9885C11.5294 7.67075 11.621 8.27483 11.702 8.85268C11.783 9.43053 11.8533 9.98214 12.1079 10.6119C12.1716 10.7693 12.1091 10.9167 11.9516 10.9804ZM8.8268 11.6332L11.4771 10.5617C11.2699 9.97379 11.2101 9.44842 11.1241 8.93366C11.0432 8.35581 10.9728 7.8042 10.7288 7.20068L10.4105 6.41347C10.3469 6.25603 10.1995 6.19351 10.042 6.25716C9.88458 6.32082 9.82206 6.46821 9.88571 6.62565L9.9918 6.88806C10.0555 7.0455 9.99293 7.19289 9.83549 7.25655C9.67805 7.3202 9.53065 7.25768 9.467 7.10024L9.14873 6.31303C9.08507 6.15559 8.93768 6.09306 8.78023 6.15672C8.62279 6.22037 8.56027 6.36777 8.62392 6.52521L8.8361 7.05001C8.89976 7.20745 8.83723 7.35485 8.67979 7.41851C8.52235 7.48216 8.37495 7.41963 8.3113 7.26219L7.99303 6.47499C7.92938 6.31755 7.78198 6.25502 7.62454 6.31868C7.4671 6.38233 7.40457 6.52973 7.46823 6.68717L7.6804 7.21197C7.74406 7.36941 7.68153 7.51681 7.52409 7.58046C7.36665 7.64412 7.21926 7.58159 7.1556 7.42415L6.20079 5.06253C6.13714 4.90509 5.98974 4.84257 5.8323 4.90622C5.67486 4.96988 5.61234 5.11727 5.67599 5.27471L7.26734 9.21074C7.33099 9.36818 7.26847 9.51558 7.11102 9.57923C6.95358 9.64289 6.80619 9.58036 6.74253 9.42292L6.65766 9.213C6.17749 8.70496 5.47736 8.40796 5.29368 8.48223C5.2412 8.50344 5.18872 8.52466 5.17309 8.56151C5.15745 8.59836 5.18928 8.67708 5.26857 8.79767C5.46399 9.05449 6.19708 9.73504 7.06137 10.3625C7.3249 10.5613 7.5566 10.6813 7.79891 10.8276C8.21486 11.0258 8.59396 11.2083 8.8268 11.6332Z" fill="#000000" fill-rule="nonzero" opacity="1" stroke="none" vectornator:layerName="path 1"/>
</g>
<g id="Layer-1" vectornator:layerName="Layer 1" visibility="hidden">
<g fill="#000000" opacity="1" stroke="none" vectornator:layerName="Text 1">
<path d="M6.00562 8.27781C6.32463 8.27781 6.57699 8.21401 6.7627 8.0864C6.9484 7.9588 7.04126 7.72865 7.04126 7.39597C7.04126 7.03822 6.91138 6.79441 6.65161 6.66453C6.51261 6.59617 6.3269 6.56199 6.09448 6.56199L4.43335 6.56199L4.43335 8.27781L6.00562 8.27781ZM3.75317 5.97751L6.07739 5.97751C6.46021 5.97751 6.7758 6.03334 7.02417 6.145C7.49585 6.35919 7.73169 6.75453 7.73169 7.33103C7.73169 7.63181 7.6696 7.87791 7.54541 8.06931C7.42122 8.26072 7.24748 8.41453 7.02417 8.53074C7.22013 8.61049 7.36768 8.71531 7.4668 8.84519C7.56592 8.97507 7.62118 9.18585 7.63257 9.47751L7.65649 10.1509C7.66333 10.3423 7.67928 10.4847 7.70435 10.5781C7.74536 10.7376 7.81828 10.8401 7.9231 10.8857L7.9231 10.9985L7.08911 10.9985C7.06632 10.9552 7.0481 10.8994 7.03442 10.831C7.02075 10.7627 7.00936 10.6305 7.00024 10.4345L6.95923 9.59714C6.94328 9.26902 6.82137 9.04913 6.59351 8.93748C6.46362 8.87595 6.25968 8.84519 5.98169 8.84519L4.43335 8.84519L4.43335 10.9985L3.75317 10.9985L3.75317 5.97751Z"/>
<path d="M8.72632 5.97751L9.3894 5.97751L9.3894 8.42478L11.8367 5.97751L12.7766 5.97751L10.6882 8.00095L12.8347 10.9985L11.9495 10.9985L10.1926 8.47947L9.3894 9.24851L9.3894 10.9985L8.72632 10.9985L8.72632 5.97751Z"/>
</g>
</g>
</svg>
